# xmcd CD database file
#
# Track frame offsets:
#	150
#	27497
#	55755
#	75032
#
# Disc length: 1364 seconds
#
# Revision: 0
# Processed by: cddbd v1.5PL3 Copyright (c) Steve Scherf et al.
# Submitted via: CDex 1.50
#
DISCID=20055204
DTITLE=kagrra - 桜
DYEAR=1900
DGENRE=Visual_Rock
TTITLE0=桜-再会の華-
TTITLE1=碧の葬列
TTITLE2=妖祭
TTITLE3=沙羅双樹の子守唄
EXTD=
EXTT0=
EXTT1=
EXTT2=
EXTT3=
PLAYORDER=
